<svg xmlns="http://www.w3.org/2000/svg" viewBox="0 0 52 64"><defs><style>.cls-1{fill:#7c4c19;}.cls-2{fill:#aa752e;}.cls-3{fill:#e8d3ba;}</style></defs><title>Canvas</title><g id="Layer_2" data-name="Layer 2"><g id="Layer_1-2" data-name="Layer 1"><rect class="cls-1" x="8" y="48" width="36" height="4" rx="2" ry="2"/><path class="cls-2" d="M23.66,0H26L14.3,62.4A2,2,0,0,1,12.37,64h0a2,2,0,0,1-1.93-2.33l11.26-60A2,2,0,0,1,23.66,0Z"/><path class="cls-2" d="M26,0h2.34a2,2,0,0,1,2,1.63l11.26,60A2,2,0,0,1,39.63,64h0a2,2,0,0,1-1.93-1.6Z"/><path class="cls-2" d="M24,0h4a0,0,0,0,1,0,0V62a2,2,0,0,1-2,2H26a2,2,0,0,1-2-2V0A0,0,0,0,1,24,0Z"/><rect class="cls-3" y="6" width="52" height="38" rx="2" ry="2"/></g></g></svg>